@startuml
hide circle
!include https://raw.github.com/Charles1625/crop-production-ontology/main/uml/polygon2.puml

class Region {
Reference : RegionReference
Area() : number
Intersection(region: Region) : Region
Contains(location : Location) : boolean
}

class IncludedPolygon

class ExcludedPolygon

Polygon <|-- IncludedPolygon

Polygon <|-- ExcludedPolygon

Region o-- "1..*" IncludedPolygon : > has

IncludedPolygon o-- "0..*" ExcludedPolygon : > has
@enduml