@startuml
hide circle

class Schema

class harvest {
date-time
quantity
}
location "1" o-- "0..*" harvest
batch "1" <-- "0..*" harvest

class planting {
date-time
quantity
}
location "1" o-- "0..*" planting
batch "1" <-- "0..*" planting

class location {
area
}
Schema "1" o-- "0..*" location

class "GeoJSON Feature" as feature

location *-- "feature" feature
location "1" o-- "0..1 part-of" feature

class transfer {
date-time
quantity
}
batch "1" o-- "0..*" transfer
batch "1 to" <-- "0..*" transfer

class purchase {
date-time
quantity
}
batch "1" o-- "0..*" purchase

class sale {
date-time
quantity
}
batch "1" o-- "0..*" sale

class batch {
reference
}
Schema "1" o-- "0..*" batch

class produce {
species
variety
part
}
batch "0--*" --> "1" produce

abstract observation {
date-time
}
location "1" o-- "0..*" observation

abstract operation {
date-time
}
location "1" o-- "0..*" operation
operation "1" o-- "0..*" application

abstract test {
date-time
}
batch "1" o-- "0..*" test

abstract processing {
date-time
}
batch "1" o-- "0..*" processing

class application {
	quantity
}

class substance {
name
}
application --> "1" substance

class ingredient {
name
concentration
}
substance o-- "0..*" ingredient
@enduml

